<?xml version="1.0" encoding="iso-8859-1"?>
<!-- Generator: Adobe Illustrator 19.0.0, SVG Export Plug-In . SVG Version: 6.00 Build 0)  -->
<svg version="1.1" id="Layer_1" xmlns="http://www.w3.org/2000/svg" xmlns:xlink="http://www.w3.org/1999/xlink" x="0px" y="0px" viewBox="0 0 512 512" style="enable-background:new 0 0 512 512;" xml:space="preserve">
	<path fill="#3F6078" d="M222.226,472.284c0,18.507-16.831,32.42-35.018,29.002c-36.731-6.903-70.521-24.653-97.524-51.656
	c-35.404-35.403-54.901-82.475-54.901-132.542s19.497-97.139,54.901-132.542c29.835-29.835,67.956-48.372,109.174-53.466
	l-19.471-19.471c-11.363-11.363-12.06-29.878-1.012-41.549c11.462-12.109,30.575-12.307,42.287-0.595l71.573,71.573
	c11.518,11.518,11.518,30.192,0,41.709l-71.573,71.573c-5.759,5.759-13.307,8.638-20.855,8.638c-7.761,0-15.521-3.043-21.337-9.131
	c-11.136-11.656-10.498-30.236,0.901-41.635l21.834-21.834C140.339,200.42,93.767,253.412,93.767,317.087
	c0,62.665,45.102,114.993,104.55,126.228C212.21,445.939,222.226,458.145,222.226,472.284L222.226,472.284z" />
	<g>
		<path fill="#3F6078" d="M192.721,512c-2.459,0-4.933-0.227-7.398-0.69c-38.98-7.326-74.546-26.16-102.853-54.468
		c-37.33-37.33-57.888-86.961-57.888-139.754s20.559-102.426,57.888-139.755c26.649-26.649,59.289-44.712,95.307-52.909
		l-5.604-5.604c-15.297-15.298-15.839-40.317-1.208-55.773c7.439-7.859,17.488-12.269,28.293-12.417
		c10.815-0.173,20.971,3.979,28.613,11.621l71.574,71.574c7.498,7.497,11.625,17.464,11.625,28.066s-4.129,20.569-11.625,28.067
		l-71.573,71.573c-7.498,7.497-17.465,11.625-28.068,11.625c-10.946,0-21.142-4.363-28.711-12.285
		c-12.423-13.004-14.06-32.808-5.128-47.912c-37.413,20.102-62.001,59.436-62.001,104.127c0,56.795,40.477,105.666,96.245,116.206
		c18.666,3.527,32.213,19.925,32.213,38.991c0,11.85-5.23,22.985-14.35,30.551C210.866,508.815,201.913,512,192.721,512z
		 M199.814,71.025c-0.091,0-0.183,0-0.273,0.002c-5.252,0.071-10.138,2.218-13.759,6.043c-7.108,7.509-6.741,19.766,0.818,27.326
		l19.469,19.469c2.757,2.757,3.7,6.843,2.434,10.529c-1.267,3.686-4.525,6.328-8.394,6.805
		c-39.307,4.858-74.997,22.34-103.213,50.556c-33.477,33.476-51.914,77.986-51.914,125.33c0,47.343,18.436,91.854,51.914,125.33
		c25.39,25.391,57.271,42.281,92.197,48.845c5.691,1.071,11.51-0.433,15.96-4.127c4.434-3.678,6.975-9.091,6.975-14.851
		c0-9.27-6.562-17.239-15.602-18.947C131.033,440.977,83.57,383.676,83.57,317.086c0-33.01,11.843-65.01,33.349-90.106
		c21.263-24.813,50.606-41.392,82.625-46.685c4.372-0.721,8.71,1.461,10.735,5.402c2.026,3.941,1.274,8.74-1.859,11.873
		l-21.834,21.834c-7.584,7.584-7.915,19.865-0.738,27.377c3.683,3.854,8.641,5.978,13.962,5.978c5.154,0,9.998-2.007,13.643-5.651
		l71.573-71.573c3.644-3.644,5.651-8.489,5.651-13.642c0-5.154-2.007-9.998-5.651-13.643l-71.573-71.573
		C209.8,73.026,204.967,71.025,199.814,71.025z" />
		<path fill="#3F6078" d="M229.482,218.262c-2.61,0-5.221-0.995-7.212-2.987c-3.983-3.983-3.983-10.441,0-14.425l1.417-1.417
		c3.983-3.983,10.441-3.983,14.425,0c3.983,3.983,3.983,10.441,0,14.425l-1.417,1.417
		C234.703,217.267,232.092,218.262,229.482,218.262z" />
		<path fill="#3F6078" d="M250.8,197c-2.61,0-5.22-0.995-7.212-2.987c-3.983-3.983-3.984-10.441,0-14.424l23.419-23.42
		c3.984-3.983,10.44-3.984,14.425,0c3.983,3.983,3.983,10.441,0,14.424l-23.42,23.419C256.02,196.003,253.41,197,250.8,197z" />
	</g>
	<path fill="#3F6078" d="M289.774,39.716c0-18.507,16.831-32.42,35.018-29.002c36.731,6.903,70.521,24.653,97.524,51.656
	c35.404,35.403,54.901,82.475,54.901,132.542s-19.497,97.139-54.901,132.542c-29.835,29.835-67.956,48.372-109.174,53.466
	l19.47,19.47c11.363,11.363,12.06,29.878,1.012,41.549c-11.462,12.109-30.574,12.306-42.287,0.595l-71.573-71.573
	c-11.518-11.518-11.518-30.192,0-41.709l71.573-71.573c5.76-5.759,13.307-8.638,20.855-8.638c7.761,0,15.521,3.043,21.337,9.131
	c11.136,11.656,10.498,30.236-0.901,41.635l-21.834,21.834c60.867-10.062,107.438-63.054,107.438-126.729
	c0-62.665-45.102-114.993-104.55-126.228C299.79,66.06,289.774,53.853,289.774,39.716L289.774,39.716z" />
	<path fill="#3F6078" d="M312.177,461.372c-10.599,0-20.541-4.115-28.051-11.625l-71.573-71.573
	c-15.476-15.476-15.476-40.658,0-56.134l71.574-71.573c7.498-7.497,17.464-11.625,28.067-11.625
	c10.946,0,21.142,4.363,28.711,12.285c12.424,13.004,14.061,32.808,5.129,47.912c37.414-20.102,62-59.435,62-104.127
	c0-56.795-40.478-105.666-96.246-116.206c-18.665-3.527-32.212-19.925-32.212-38.991c0-11.851,5.23-22.985,14.35-30.551
	c9.137-7.58,21.077-10.667,32.75-8.475c38.98,7.326,74.545,26.16,102.853,54.467c37.331,37.33,57.888,86.963,57.888,139.754
	c0,52.793-20.558,102.426-57.888,139.755c-26.649,26.649-59.29,44.712-95.307,52.909l5.603,5.603
	c15.296,15.298,15.837,40.317,1.208,55.773c-7.439,7.859-17.488,12.269-28.294,12.417
	C312.551,461.371,312.363,461.372,312.177,461.372z M312.192,259.24c-5.153,0-9.997,2.007-13.642,5.651l-71.574,71.573
	c-7.523,7.522-7.523,19.762,0,27.285l71.574,71.573c3.716,3.716,8.706,5.721,13.909,5.649c5.252-0.071,10.138-2.218,13.759-6.043
	c7.108-7.509,6.741-19.766-0.817-27.326l-19.471-19.469c-2.756-2.757-3.7-6.843-2.433-10.529c1.267-3.686,4.525-6.328,8.393-6.805
	c39.306-4.858,74.997-22.34,103.212-50.556c33.477-33.476,51.914-77.986,51.914-125.33c0-47.343-18.436-91.854-51.914-125.33
	c-25.391-25.391-57.271-42.281-92.196-48.845c-5.694-1.072-11.508,0.433-15.959,4.127c-4.434,3.677-6.976,9.091-6.976,14.851
	c0,9.27,6.561,17.239,15.601,18.947c65.394,12.359,112.857,69.659,112.857,136.25c0,33.01-11.843,65.011-33.349,90.106
	c-21.263,24.813-50.606,41.392-82.625,46.685c-4.366,0.721-8.709-1.46-10.735-5.402c-2.025-3.941-1.274-8.74,1.859-11.873
	l21.834-21.834c7.584-7.583,7.915-19.865,0.738-27.377C322.471,261.364,317.512,259.24,312.192,259.24z" />
	<g></g>
	<g></g>
	<g></g>
	<g></g>
	<g></g>
	<g></g>
	<g></g>
	<g></g>
	<g></g>
	<g></g>
	<g></g>
	<g></g>
	<g></g>
	<g></g>
	<g></g>
</svg>
